# Blender v2.80 (sub 75) OBJ File: 'skybox.blend'
# www.blender.org
mtllib skybox.mtl
o Cube_Cube.001
v -1000.000000 -1000.000000 1000.000000
v -1000.000000 1000.000000 1000.000000
v -1000.000000 -1000.000000 -1000.000000
v -1000.000000 1000.000000 -1000.000000
v 1000.000000 -1000.000000 1000.000000
v 1000.000000 1000.000000 1000.000000
v 1000.000000 -1000.000000 -1000.000000
v 1000.000000 1000.000000 -1000.000000
vt 0.000100 0.333367
vt 0.250050 0.333367
vt 0.250050 0.666633
vt 0.000100 0.666633
vt 0.500000 0.333367
vt 0.500000 0.666633
vt 0.749950 0.333367
vt 0.749950 0.666633
vt 0.999900 0.333367
vt 0.999900 0.666634
vt 0.250050 0.000100
vt 0.500000 0.000100
vt 0.500000 0.999900
vt 0.250050 0.999900
vn 1.0000 0.0000 0.0000
vn 0.0000 0.0000 1.0000
vn -1.0000 0.0000 0.0000
vn 0.0000 0.0000 -1.0000
vn 0.0000 1.0000 0.0000
vn 0.0000 -1.0000 0.0000
usemtl cube
s off
f 1/1/1 3/2/1 4/3/1 2/4/1
f 3/2/2 7/5/2 8/6/2 4/3/2
f 7/5/3 5/7/3 6/8/3 8/6/3
f 5/7/4 1/9/4 2/10/4 6/8/4
f 3/2/5 1/11/5 5/12/5 7/5/5
f 8/6/6 6/13/6 2/14/6 4/3/6
