# Blender 3.4.1
# www.blender.org
mtllib skybox.mtl
o Skybox
v 1000.000000 1000.000366 -999.999634
v 1000.000000 -999.999634 -1000.000366
v 1000.000000 999.999634 1000.000366
v 1000.000000 -1000.000366 999.999634
v -1000.000000 1000.000366 -999.999634
v -1000.000000 -999.999634 -1000.000366
v -1000.000000 999.999634 1000.000366
v -1000.000000 -1000.000366 999.999634
vn -1.0000 -0.0000 -0.0000
vn -0.0000 -0.0000 1.0000
vn 1.0000 -0.0000 -0.0000
vn -0.0000 -0.0000 -1.0000
vn -0.0000 -1.0000 -0.0000
vn -0.0000 1.0000 -0.0000
vt 0.000100 0.999900
vt 0.999900 0.999900
vt 0.000100 0.000100
vt 0.999900 0.000100
vt 0.000100 0.999900
vt 0.999900 0.999900
vt 0.999900 0.000100
vt 0.000100 0.000100
vt 0.999900 0.000100
vt 0.999900 0.999900
vt 0.999900 0.999900
vt 0.000100 0.999900
vt 0.999900 0.000100
vt 0.000100 0.000100
vt 0.999900 0.999900
vt 0.000100 0.999900
vt 0.000100 0.000100
vt 0.999900 0.000100
vt 0.000100 0.000100
vt 0.000100 0.999900
s 0
usemtl Material.007
f 2/4/1 4/8/1 3/5/1 1/2/1
usemtl Material.008
f 6/13/2 2/3/2 1/1/2 5/11/2
usemtl Material.009
f 8/18/3 6/14/3 5/12/3 7/15/3
usemtl Material.010
f 4/9/4 8/19/4 7/16/4 3/6/4
usemtl Material.011
f 1/2/5 3/7/5 7/17/5 5/12/5
usemtl Material.012
f 6/14/6 8/20/6 4/10/6 2/4/6
