# Blender v2.82 (sub 7) OBJ File: 'cube.blend'
# www.blender.org
mtllib cube2.mtl
o Cube
v 1.000000 4.000000 -1.000000
v 1.000000 2.000000 -1.000000
v 1.000000 4.000000 1.000000
v 1.000000 2.000000 1.000000
v -1.000000 4.000000 -1.000000
v -1.000000 2.000000 -1.000000
v -1.000000 4.000000 1.000000
v -1.000000 2.000000 1.000000
vt 0.999900 0.000100
vt 0.999900 0.999900
vt 0.000100 0.999900
vt 0.000100 0.000100
vt 0.999900 0.000100
vt 0.999900 0.999900
vt 0.000100 0.999900
vt 0.000100 0.000100
vt 0.999900 0.000100
vt 0.999900 0.999900
vt 0.000100 0.999900
vt 0.000100 0.000100
vt 0.999900 0.000100
vt 0.999900 0.999900
vt 0.000100 0.999900
vt 0.000100 0.000100
vt 0.999900 0.000100
vt 0.000100 0.000100
vt 0.000100 0.999900
vt 0.999900 0.999900
vn 1.0000 0.0000 0.0000
vn 0.0000 0.0000 -1.0000
vn -1.0000 0.0000 0.0000
vn 0.0000 0.0000 1.0000
vn 0.0000 1.0000 0.0000
vn 0.0000 -1.0000 0.0000
usemtl Material
s off
f 2/1/1 1/2/1 3/3/1 4/4/1
usemtl Material.001
f 6/5/2 5/6/2 1/7/2 2/8/2
usemtl Material.002
f 8/9/3 7/10/3 5/11/3 6/12/3
usemtl Material.003
f 4/13/4 3/14/4 7/15/4 8/16/4
usemtl Material.004
f 1/17/5 5/6/5 7/15/5 3/18/5
usemtl Material.005
f 6/19/6 2/8/6 4/13/6 8/20/6
